<?xml version="1.0" encoding="UTF-8" standalone="no"?>
<!DOCTYPE svg PUBLIC "-//W3C//DTD SVG 1.1//EN"
 "http://www.w3.org/Graphics/SVG/1.1/DTD/svg11.dtd">
<!-- Generated by graphviz version 2.40.1 (20161225.0304)
 -->
<!-- Title: snakemake_dag Pages: 1 -->
<svg width="408pt" height="548pt"
 viewBox="0.00 0.00 408.00 548.00" xmlns="http://www.w3.org/2000/svg" xmlns:xlink="http://www.w3.org/1999/xlink">
<g id="graph0" class="graph" transform="scale(1 1) rotate(0) translate(4 544)">
<title>snakemake_dag</title>
<polygon fill="#ffffff" stroke="transparent" points="-4,4 -4,-544 404,-544 404,4 -4,4"/>
<!-- 0 -->
<g id="node1" class="node">
<title>0</title>
<path fill="none" stroke="#56d86b" stroke-width="2" d="M226,-36C226,-36 196,-36 196,-36 190,-36 184,-30 184,-24 184,-24 184,-12 184,-12 184,-6 190,0 196,0 196,0 226,0 226,0 232,0 238,-6 238,-12 238,-12 238,-24 238,-24 238,-30 232,-36 226,-36"/>
<text text-anchor="middle" x="211" y="-15.5" font-family="sans" font-size="10.00" fill="#000000">all</text>
</g>
<!-- 1 -->
<g id="node2" class="node">
<title>1</title>
<path fill="none" stroke="#56d88a" stroke-width="2" d="M59,-324C59,-324 29,-324 29,-324 23,-324 17,-318 17,-312 17,-312 17,-300 17,-300 17,-294 23,-288 29,-288 29,-288 59,-288 59,-288 65,-288 71,-294 71,-300 71,-300 71,-312 71,-312 71,-318 65,-324 59,-324"/>
<text text-anchor="middle" x="44" y="-303.5" font-family="sans" font-size="10.00" fill="#000000">multiqc</text>
</g>
<!-- 1&#45;&gt;0 -->
<g id="edge3" class="edge">
<title>1&#45;&gt;0</title>
<path fill="none" stroke="#c0c0c0" stroke-width="2" d="M39.5199,-287.8997C30.1226,-245.3236 13.1093,-137.4948 63,-72 76.7602,-53.9361 134.9344,-36.5873 174.1182,-26.6255"/>
<polygon fill="#c0c0c0" stroke="#c0c0c0" stroke-width="2" points="175.0189,-30.0082 183.8774,-24.1963 173.3281,-23.2154 175.0189,-30.0082"/>
</g>
<!-- 2 -->
<g id="node3" class="node">
<title>2</title>
<path fill="none" stroke="#d8bc56" stroke-width="2" d="M151.5,-108C151.5,-108 84.5,-108 84.5,-108 78.5,-108 72.5,-102 72.5,-96 72.5,-96 72.5,-84 72.5,-84 72.5,-78 78.5,-72 84.5,-72 84.5,-72 151.5,-72 151.5,-72 157.5,-72 163.5,-78 163.5,-84 163.5,-84 163.5,-96 163.5,-96 163.5,-102 157.5,-108 151.5,-108"/>
<text text-anchor="middle" x="118" y="-87.5" font-family="sans" font-size="10.00" fill="#000000">merger_quality</text>
</g>
<!-- 2&#45;&gt;0 -->
<g id="edge2" class="edge">
<title>2&#45;&gt;0</title>
<path fill="none" stroke="#c0c0c0" stroke-width="2" d="M141.4678,-71.8314C153.0327,-62.8779 167.1404,-51.9558 179.6183,-42.2955"/>
<polygon fill="#c0c0c0" stroke="#c0c0c0" stroke-width="2" points="181.775,-45.0521 187.5397,-36.1628 177.4898,-39.5171 181.775,-45.0521"/>
</g>
<!-- 3 -->
<g id="node4" class="node">
<title>3</title>
<path fill="none" stroke="#68d856" stroke-width="2" d="M388,-108C388,-108 350,-108 350,-108 344,-108 338,-102 338,-96 338,-96 338,-84 338,-84 338,-78 344,-72 350,-72 350,-72 388,-72 388,-72 394,-72 400,-78 400,-84 400,-84 400,-96 400,-96 400,-102 394,-108 388,-108"/>
<text text-anchor="middle" x="369" y="-87.5" font-family="sans" font-size="10.00" fill="#000000">blast_top</text>
</g>
<!-- 3&#45;&gt;0 -->
<g id="edge6" class="edge">
<title>3&#45;&gt;0</title>
<path fill="none" stroke="#c0c0c0" stroke-width="2" d="M337.7843,-75.7751C311.7994,-63.9339 274.7665,-47.0581 247.43,-34.601"/>
<polygon fill="#c0c0c0" stroke="#c0c0c0" stroke-width="2" points="248.7502,-31.3564 238.1991,-30.3945 245.8474,-37.7262 248.7502,-31.3564"/>
</g>
<!-- 4 -->
<g id="node5" class="node">
<title>4</title>
<path fill="none" stroke="#56c1d8" stroke-width="2" d="M189.5,-180C189.5,-180 148.5,-180 148.5,-180 142.5,-180 136.5,-174 136.5,-168 136.5,-168 136.5,-156 136.5,-156 136.5,-150 142.5,-144 148.5,-144 148.5,-144 189.5,-144 189.5,-144 195.5,-144 201.5,-150 201.5,-156 201.5,-156 201.5,-168 201.5,-168 201.5,-174 195.5,-180 189.5,-180"/>
<text text-anchor="middle" x="169" y="-159.5" font-family="sans" font-size="10.00" fill="#000000">seqmatch</text>
</g>
<!-- 4&#45;&gt;0 -->
<g id="edge5" class="edge">
<title>4&#45;&gt;0</title>
<path fill="none" stroke="#c0c0c0" stroke-width="2" d="M174.3193,-143.7623C181.5146,-119.0928 194.4159,-74.8598 202.8412,-45.9731"/>
<polygon fill="#c0c0c0" stroke="#c0c0c0" stroke-width="2" points="206.2838,-46.6696 205.7239,-36.0896 199.5638,-44.7096 206.2838,-46.6696"/>
</g>
<!-- 5 -->
<g id="node6" class="node">
<title>5</title>
<path fill="none" stroke="#d87556" stroke-width="2" d="M248.5,-252C248.5,-252 211.5,-252 211.5,-252 205.5,-252 199.5,-246 199.5,-240 199.5,-240 199.5,-228 199.5,-228 199.5,-222 205.5,-216 211.5,-216 211.5,-216 248.5,-216 248.5,-216 254.5,-216 260.5,-222 260.5,-228 260.5,-228 260.5,-240 260.5,-240 260.5,-246 254.5,-252 248.5,-252"/>
<text text-anchor="middle" x="230" y="-231.5" font-family="sans" font-size="10.00" fill="#000000">classifier</text>
</g>
<!-- 5&#45;&gt;0 -->
<g id="edge1" class="edge">
<title>5&#45;&gt;0</title>
<path fill="none" stroke="#c0c0c0" stroke-width="2" d="M228.4128,-215.9555C225.1017,-178.3144 217.4377,-91.1867 213.4739,-46.1246"/>
<polygon fill="#c0c0c0" stroke="#c0c0c0" stroke-width="2" points="216.959,-45.7999 212.5961,-36.1451 209.9859,-46.4133 216.959,-45.7999"/>
</g>
<!-- 11 -->
<g id="node12" class="node">
<title>11</title>
<path fill="none" stroke="#56d8d0" stroke-width="2" d="M312,-180C312,-180 270,-180 270,-180 264,-180 258,-174 258,-168 258,-168 258,-156 258,-156 258,-150 264,-144 270,-144 270,-144 312,-144 312,-144 318,-144 324,-150 324,-156 324,-156 324,-168 324,-168 324,-174 318,-180 312,-180"/>
<text text-anchor="middle" x="291" y="-159.5" font-family="sans" font-size="10.00" fill="#000000">genus_list</text>
</g>
<!-- 5&#45;&gt;11 -->
<g id="edge19" class="edge">
<title>5&#45;&gt;11</title>
<path fill="none" stroke="#c0c0c0" stroke-width="2" d="M245.3929,-215.8314C252.4904,-207.454 261.048,-197.3531 268.824,-188.1749"/>
<polygon fill="#c0c0c0" stroke="#c0c0c0" stroke-width="2" points="271.6061,-190.3056 275.3999,-180.4133 266.2652,-185.7807 271.6061,-190.3056"/>
</g>
<!-- 6 -->
<g id="node7" class="node">
<title>6</title>
<path fill="none" stroke="#56d8a9" stroke-width="2" d="M308,-108C308,-108 270,-108 270,-108 264,-108 258,-102 258,-96 258,-96 258,-84 258,-84 258,-78 264,-72 270,-72 270,-72 308,-72 308,-72 314,-72 320,-78 320,-84 320,-84 320,-96 320,-96 320,-102 314,-108 308,-108"/>
<text text-anchor="middle" x="289" y="-87.5" font-family="sans" font-size="10.00" fill="#000000">ncbi_tree</text>
</g>
<!-- 6&#45;&gt;0 -->
<g id="edge4" class="edge">
<title>6&#45;&gt;0</title>
<path fill="none" stroke="#c0c0c0" stroke-width="2" d="M269.3173,-71.8314C259.8949,-63.1337 248.4599,-52.5783 238.2204,-43.1265"/>
<polygon fill="#c0c0c0" stroke="#c0c0c0" stroke-width="2" points="240.3984,-40.3738 230.6764,-36.1628 235.6505,-45.5175 240.3984,-40.3738"/>
</g>
<!-- 7 -->
<g id="node8" class="node">
<title>7</title>
<path fill="none" stroke="#d89c56" stroke-width="2" d="M56,-468C56,-468 12,-468 12,-468 6,-468 0,-462 0,-456 0,-456 0,-444 0,-444 0,-438 6,-432 12,-432 12,-432 56,-432 56,-432 62,-432 68,-438 68,-444 68,-444 68,-456 68,-456 68,-462 62,-468 56,-468"/>
<text text-anchor="middle" x="34" y="-447.5" font-family="sans" font-size="10.00" fill="#000000">fastqc_pre</text>
</g>
<!-- 7&#45;&gt;1 -->
<g id="edge7" class="edge">
<title>7&#45;&gt;1</title>
<path fill="none" stroke="#c0c0c0" stroke-width="2" d="M31.3989,-431.9959C29.1883,-413.774 26.8344,-384.8237 30,-360 31.0854,-351.4887 33.0962,-342.4011 35.262,-334.1555"/>
<polygon fill="#c0c0c0" stroke="#c0c0c0" stroke-width="2" points="38.7045,-334.8414 38.0302,-324.2681 31.9637,-332.9542 38.7045,-334.8414"/>
</g>
<!-- 8 -->
<g id="node9" class="node">
<title>8</title>
<path fill="none" stroke="#567bd8" stroke-width="2" d="M100.5,-396C100.5,-396 51.5,-396 51.5,-396 45.5,-396 39.5,-390 39.5,-384 39.5,-384 39.5,-372 39.5,-372 39.5,-366 45.5,-360 51.5,-360 51.5,-360 100.5,-360 100.5,-360 106.5,-360 112.5,-366 112.5,-372 112.5,-372 112.5,-384 112.5,-384 112.5,-390 106.5,-396 100.5,-396"/>
<text text-anchor="middle" x="76" y="-375.5" font-family="sans" font-size="10.00" fill="#000000">fastqc_post</text>
</g>
<!-- 8&#45;&gt;1 -->
<g id="edge8" class="edge">
<title>8&#45;&gt;1</title>
<path fill="none" stroke="#c0c0c0" stroke-width="2" d="M67.925,-359.8314C64.3898,-351.8771 60.164,-342.369 56.2544,-333.5723"/>
<polygon fill="#c0c0c0" stroke="#c0c0c0" stroke-width="2" points="59.4435,-332.1299 52.1837,-324.4133 53.0468,-334.9729 59.4435,-332.1299"/>
</g>
<!-- 9 -->
<g id="node10" class="node">
<title>9</title>
<path fill="none" stroke="#afd856" stroke-width="2" d="M199,-324C199,-324 145,-324 145,-324 139,-324 133,-318 133,-312 133,-312 133,-300 133,-300 133,-294 139,-288 145,-288 145,-288 199,-288 199,-288 205,-288 211,-294 211,-300 211,-300 211,-312 211,-312 211,-318 205,-324 199,-324"/>
<text text-anchor="middle" x="172" y="-303.5" font-family="sans" font-size="10.00" fill="#000000">merge_fastq</text>
</g>
<!-- 9&#45;&gt;2 -->
<g id="edge9" class="edge">
<title>9&#45;&gt;2</title>
<path fill="none" stroke="#c0c0c0" stroke-width="2" d="M164.097,-287.6002C154.0467,-263.3953 136.9285,-219.3154 128,-180 123.3651,-159.5909 120.8465,-136.0702 119.4965,-118.1932"/>
<polygon fill="#c0c0c0" stroke="#c0c0c0" stroke-width="2" points="122.9826,-117.8685 118.814,-108.1283 115.9986,-118.3422 122.9826,-117.8685"/>
</g>
<!-- 9&#45;&gt;4 -->
<g id="edge11" class="edge">
<title>9&#45;&gt;4</title>
<path fill="none" stroke="#c0c0c0" stroke-width="2" d="M171.62,-287.7623C171.1084,-263.201 170.1927,-219.2474 169.5907,-190.3541"/>
<polygon fill="#c0c0c0" stroke="#c0c0c0" stroke-width="2" points="173.0845,-190.0145 169.3769,-180.0896 166.086,-190.1604 173.0845,-190.0145"/>
</g>
<!-- 9&#45;&gt;5 -->
<g id="edge12" class="edge">
<title>9&#45;&gt;5</title>
<path fill="none" stroke="#c0c0c0" stroke-width="2" d="M186.6358,-287.8314C193.3161,-279.5386 201.3568,-269.557 208.6904,-260.4533"/>
<polygon fill="#c0c0c0" stroke="#c0c0c0" stroke-width="2" points="211.6194,-262.3965 215.1671,-252.4133 206.1681,-258.0052 211.6194,-262.3965"/>
</g>
<!-- 10 -->
<g id="node11" class="node">
<title>10</title>
<path fill="none" stroke="#ced856" stroke-width="2" d="M344,-252C344,-252 314,-252 314,-252 308,-252 302,-246 302,-240 302,-240 302,-228 302,-228 302,-222 308,-216 314,-216 314,-216 344,-216 344,-216 350,-216 356,-222 356,-228 356,-228 356,-240 356,-240 356,-246 350,-252 344,-252"/>
<text text-anchor="middle" x="329" y="-231.5" font-family="sans" font-size="10.00" fill="#000000">blastn</text>
</g>
<!-- 9&#45;&gt;10 -->
<g id="edge18" class="edge">
<title>9&#45;&gt;10</title>
<path fill="none" stroke="#c0c0c0" stroke-width="2" d="M211.2127,-288.0171C236.0689,-276.6181 268.0057,-261.9719 292.3521,-250.8067"/>
<polygon fill="#c0c0c0" stroke="#c0c0c0" stroke-width="2" points="293.9813,-253.9101 301.612,-246.5601 291.0633,-247.5473 293.9813,-253.9101"/>
</g>
<!-- 10&#45;&gt;3 -->
<g id="edge10" class="edge">
<title>10&#45;&gt;3</title>
<path fill="none" stroke="#c0c0c0" stroke-width="2" d="M334.066,-215.7623C340.9187,-191.0928 353.2056,-146.8598 361.2297,-117.9731"/>
<polygon fill="#c0c0c0" stroke="#c0c0c0" stroke-width="2" points="364.6709,-118.6616 363.9751,-108.0896 357.9263,-116.788 364.6709,-118.6616"/>
</g>
<!-- 11&#45;&gt;6 -->
<g id="edge13" class="edge">
<title>11&#45;&gt;6</title>
<path fill="none" stroke="#c0c0c0" stroke-width="2" d="M290.4953,-143.8314C290.2814,-136.131 290.0271,-126.9743 289.7894,-118.4166"/>
<polygon fill="#c0c0c0" stroke="#c0c0c0" stroke-width="2" points="293.2879,-118.3122 289.5115,-108.4133 286.2906,-118.5066 293.2879,-118.3122"/>
</g>
<!-- 12 -->
<g id="node13" class="node">
<title>12</title>
<path fill="none" stroke="#d85656" stroke-width="2" d="M102.5,-540C102.5,-540 49.5,-540 49.5,-540 43.5,-540 37.5,-534 37.5,-528 37.5,-528 37.5,-516 37.5,-516 37.5,-510 43.5,-504 49.5,-504 49.5,-504 102.5,-504 102.5,-504 108.5,-504 114.5,-510 114.5,-516 114.5,-516 114.5,-528 114.5,-528 114.5,-534 108.5,-540 102.5,-540"/>
<text text-anchor="middle" x="76" y="-519.5" font-family="sans" font-size="10.00" fill="#000000">abi_to_fastq</text>
</g>
<!-- 12&#45;&gt;7 -->
<g id="edge14" class="edge">
<title>12&#45;&gt;7</title>
<path fill="none" stroke="#c0c0c0" stroke-width="2" d="M65.4016,-503.8314C60.7123,-495.7925 55.0972,-486.1666 49.9202,-477.2918"/>
<polygon fill="#c0c0c0" stroke="#c0c0c0" stroke-width="2" points="52.8031,-475.2875 44.7411,-468.4133 46.7566,-478.8146 52.8031,-475.2875"/>
</g>
<!-- 13 -->
<g id="node14" class="node">
<title>13</title>
<path fill="none" stroke="#569ad8" stroke-width="2" d="M148.5,-468C148.5,-468 109.5,-468 109.5,-468 103.5,-468 97.5,-462 97.5,-456 97.5,-456 97.5,-444 97.5,-444 97.5,-438 103.5,-432 109.5,-432 109.5,-432 148.5,-432 148.5,-432 154.5,-432 160.5,-438 160.5,-444 160.5,-444 160.5,-456 160.5,-456 160.5,-462 154.5,-468 148.5,-468"/>
<text text-anchor="middle" x="129" y="-447.5" font-family="sans" font-size="10.00" fill="#000000">qual_trim</text>
</g>
<!-- 12&#45;&gt;13 -->
<g id="edge20" class="edge">
<title>12&#45;&gt;13</title>
<path fill="none" stroke="#c0c0c0" stroke-width="2" d="M89.3741,-503.8314C95.4162,-495.6232 102.6763,-485.7606 109.3221,-476.7323"/>
<polygon fill="#c0c0c0" stroke="#c0c0c0" stroke-width="2" points="112.3363,-478.5415 115.4458,-468.4133 106.6989,-474.3918 112.3363,-478.5415"/>
</g>
<!-- 13&#45;&gt;8 -->
<g id="edge15" class="edge">
<title>13&#45;&gt;8</title>
<path fill="none" stroke="#c0c0c0" stroke-width="2" d="M115.6259,-431.8314C109.5838,-423.6232 102.3237,-413.7606 95.6779,-404.7323"/>
<polygon fill="#c0c0c0" stroke="#c0c0c0" stroke-width="2" points="98.3011,-402.3918 89.5542,-396.4133 92.6637,-406.5415 98.3011,-402.3918"/>
</g>
<!-- 13&#45;&gt;9 -->
<g id="edge17" class="edge">
<title>13&#45;&gt;9</title>
<path fill="none" stroke="#c0c0c0" stroke-width="2" d="M134.446,-431.7623C141.8126,-407.0928 155.021,-362.8598 163.6469,-333.9731"/>
<polygon fill="#c0c0c0" stroke="#c0c0c0" stroke-width="2" points="167.0906,-334.673 166.5982,-324.0896 160.3832,-332.6701 167.0906,-334.673"/>
</g>
<!-- 14 -->
<g id="node15" class="node">
<title>14</title>
<path fill="none" stroke="#88d856" stroke-width="2" d="M277,-396C277,-396 181,-396 181,-396 175,-396 169,-390 169,-384 169,-384 169,-372 169,-372 169,-366 175,-360 181,-360 181,-360 277,-360 277,-360 283,-360 289,-366 289,-372 289,-372 289,-384 289,-384 289,-390 283,-396 277,-396"/>
<text text-anchor="middle" x="229" y="-375.5" font-family="sans" font-size="10.00" fill="#000000">reverse_complement</text>
</g>
<!-- 13&#45;&gt;14 -->
<g id="edge21" class="edge">
<title>13&#45;&gt;14</title>
<path fill="none" stroke="#c0c0c0" stroke-width="2" d="M154.2342,-431.8314C166.788,-422.7927 182.1283,-411.7476 195.6391,-402.0198"/>
<polygon fill="#c0c0c0" stroke="#c0c0c0" stroke-width="2" points="197.7036,-404.8463 203.7739,-396.1628 193.6134,-399.1655 197.7036,-404.8463"/>
</g>
<!-- 14&#45;&gt;9 -->
<g id="edge16" class="edge">
<title>14&#45;&gt;9</title>
<path fill="none" stroke="#c0c0c0" stroke-width="2" d="M214.6165,-359.8314C208.0514,-351.5386 200.1493,-341.557 192.9422,-332.4533"/>
<polygon fill="#c0c0c0" stroke="#c0c0c0" stroke-width="2" points="195.5284,-330.0813 186.5772,-324.4133 190.0401,-334.4262 195.5284,-330.0813"/>
</g>
</g>
</svg>
